<svg width="123" height="26" viewBox="0 0 123 26" fill="none" xmlns="http://www.w3.org/2000/svg">
<circle cx="87.5593" cy="4.16949" r="4.16949" transform="rotate(90 87.5593 4.16949)" fill="#022CD7"/>
<circle cx="108.407" cy="4.16949" r="4.16949" transform="rotate(90 108.407 4.16949)" fill="#022CD7"/>
<circle cx="4.1695" cy="4.16949" r="4.16949" transform="rotate(90 4.1695 4.16949)" fill="#022CD7"/>
<circle cx="25.0169" cy="4.16949" r="4.16949" transform="rotate(90 25.0169 4.16949)" fill="#022CD7"/>
<circle cx="45.8644" cy="4.16949" r="4.16949" transform="rotate(90 45.8644 4.16949)" fill="#022CD7"/>
<circle cx="66.7119" cy="4.16949" r="4.16949" transform="rotate(90 66.7119 4.16949)" fill="#022CD7"/>
<circle cx="97.983" cy="20.8475" r="4.16949" transform="rotate(90 97.983 20.8475)" fill="#022CD7"/>
<circle cx="118.831" cy="20.8475" r="4.16949" transform="rotate(90 118.831 20.8475)" fill="#022CD7"/>
<circle cx="14.5932" cy="20.8475" r="4.16949" transform="rotate(90 14.5932 20.8475)" fill="#022CD7"/>
<circle cx="35.4407" cy="20.8475" r="4.16949" transform="rotate(90 35.4407 20.8475)" fill="#022CD7"/>
<circle cx="56.2882" cy="20.8475" r="4.16949" transform="rotate(90 56.2882 20.8475)" fill="#022CD7"/>
<circle cx="77.1356" cy="20.8475" r="4.16949" transform="rotate(90 77.1356 20.8475)" fill="#022CD7"/>
</svg>
