<?xml version="1.0" encoding="UTF-8"?>
<svg id="Calque_2" data-name="Calque 2" xmlns="http://www.w3.org/2000/svg" viewBox="0 0 385.06 236.25">
  <defs>
    <style>
      .cls-1 {
        fill: #1f1f21;
      }

      .cls-1, .cls-2 {
        stroke-width: 0px;
      }

      .cls-2 {
        fill: #fff;
      }
    </style>
  </defs>
  <g id="Calque_1-2" data-name="Calque 1">
    <path class="cls-2" d="m0,22.91l121.81,69.59-3.21-36.14,185.92,95.4-4.41-50.35,84.95,36.06-125.01-84.14c1.34,13.22,2.67,26.44,4.01,39.66C202.48,62,140.91,31,79.34,0l9.62,54.87L0,22.91Z"/>
    <path class="cls-2" d="m155.5,236.25c5.1-28.34,10.2-56.67,15.29-85.01-3.89-5.69-7.79-11.39-11.68-17.08-9.76-6.68-19.52-13.36-29.28-20.04,2.22-16.3,4.44-32.6,6.66-48.9l4.22-10.56,10.56-3.17,4.75-17.95h21.83l4.14-3.13c6.78,2.26,13.55,4.52,20.33,6.78l5.1-1.15,18.8,11.59c-.11,2.37-.22,4.75-.33,7.12l3.44-.69c5.18,4.02,10.36,8.04,15.53,12.05,1.09,5.31,2.19,10.62,3.28,15.93v45.88l-16.29,24.09,2.06,84.21h-78.42Z"/>
    <path class="cls-1" d="m191.19,230c8.97.13,17.93.27,26.9.4,3.21-22.27,6.43-44.54,9.64-66.8l-11.82-.39c-1.8,12.7-3.59,25.41-5.39,38.11l-1.04-38.75c-3.77-.03-7.54-.05-11.32-.08,0,15.29,0,30.58,0,45.87-2.76-18.58-5.53-37.15-8.29-55.73,2.66.5,5.31,1,7.97,1.5l.32,6.34c3.88.02,7.76.04,11.64.07,0-2.64,0-5.27.01-7.91h7.39l-.22,6.27,7.39-2.02,3.36-4.26-14.78-6.26,2.91-2.25c3.43-1.42,6.85-2.85,10.28-4.27-3.13-6.19-6.26-12.39-9.38-18.58,4.39,5.66,8.77,11.33,13.16,16.99.96-.53,1.91-1.05,2.87-1.58-5.05-6.41-10.09-12.82-15.14-19.22l16.58,17.02,3.58-12.54-27.78-15.23.9,7.84-1.34,15.01-.9-13.66-4.93-10.3-13.89-7.17-14.34-5.38h-17.02l-3.36-.9-9.63,4.03,10.3-8.06.45-3.81-8.06-2.24-7.39-8.96-2.02,35.84,26.11,18.4c4.36,6.34,8.73,12.68,13.09,19.02.84,6.66,1.73,13.38,2.69,20.15,3.08,21.83,6.61,43,10.5,63.48Z"/>
    <path class="cls-1" d="m159.13,36.07c.64-.61,1.5-.43,1.57-.41,4.86.31,9.72.62,14.58.93.22.04.84.18,1.37.72.62.64.69,1.4.71,1.6.11.88,2.05,17.25,1.54,19.42-.22.91-.78,1.3-.78,1.3-.61.42-1.37.29-1.68.23-1.48-.26-6.86-2.43-14-5.66-.43-.3-.96-.75-1.46-1.38-.9-1.14-1.24-2.31-1.38-2.99-.33-4.16-.65-8.31-.98-12.47,0-.11-.02-.78.51-1.28Z"/>
    <path class="cls-1" d="m181.13,36.21c.98-.68,1.95-1.36,2.93-2.04,1.66.41,3.33.82,4.99,1.22l9.14,2.41c.94.53,1.88,1.06,2.82,1.6.2.93.41,1.86.61,2.78-.89,9.31-1.79,18.63-2.68,27.94-.11.48-.32,1.21-.77,2.01-.27.48-1.12,1.91-2.89,2.79-.36.18-1.16.57-2.26.64-1.1.07-2-.28-3.77-.99-1.29-.52-2.53-1.03-4.01-2.04-1.01-.69-1.64-1.12-2.2-1.92-.92-1.33-1.03-2.66-1.05-3.21-.2-6.06-.7-25.14-.75-27.96-.02-1.53-.07-2.74-.09-3.23Z"/>
    <path class="cls-1" d="m205.23,41.46l-6.5,36.38,1.18,3.55,10.64,3.07,5.79-2.84c2.7-8.91,5.39-17.83,8.09-26.74.03-1.56.06-3.12.09-4.68-5.76-3.67-11.52-7.35-17.28-11.02-.67.76-1.34,1.52-2.01,2.28Z"/>
    <polygon class="cls-1" points="228.99 56.44 216.34 85.53 216.34 88.36 226.51 92.5 230.65 91.91 243.89 70.27 243.18 67.67 228.99 56.44"/>
  </g>
</svg>