<?xml version="1.0" encoding="utf-8"?>
<!-- Generator: Adobe Illustrator 28.0.0, SVG Export Plug-In . SVG Version: 6.00 Build 0)  -->
<svg version="1.1" id="Calque_2_00000049217937308540759900000015201424930674883733_"
	 xmlns="http://www.w3.org/2000/svg" xmlns:xlink="http://www.w3.org/1999/xlink" x="0px" y="0px" viewBox="0 0 157.2 55.5"
	 style="enable-background:new 0 0 157.2 55.5;" xml:space="preserve">
<g id="Calque_1-2">
	<g id="XMLID_00000021811271215888139970000003525434571514069140_">
		<g>
			<path d="M141.4,6.7c14,0,16.6,0.8,15.7,7.4c-0.1,0.6-0.6,1-1.2,1H150c-0.4,0-0.8-0.3-0.8-0.7c-0.1-1.5-1.6-1.5-9-1.5
				c-8.4,0-9.4,0-9.7,2.1s0.6,2.1,9,2.1c14.4,0,17.4,0,16,7.7v0c-1.3,7.7-4.6,8.4-18.9,8.4c-14.3,0-17-0.6-16-7.5
				c0.1-0.6,0.6-1,1.2-1h5.9c0.4,0,0.8,0.3,0.8,0.7c0.2,1.6,1.8,1.5,9.2,1.5c8.4,0,9.6,0,10-2.1c0.4-2.1-0.9-2.1-9.3-2.1
				c-14.2,0-17.1,0-15.7-7.7C124.1,7.4,127.4,6.7,141.4,6.7z"/>
			<path d="M113.7,33.9c6,7.2,12,14.4,18.1,21.6c-8-7-16.1-13.9-24.1-20.9c2.2-6.6,4.3-13.1,6.5-19.7l-4.2-7.5h6.6
				c1.4,2.6,2.7,5.1,4.1,7.7L113.7,33.9z"/>
			<circle cx="113.3" cy="2.7" r="2.7"/>
			<path d="M97.5,7.4c9.9,0,10.9,0.9,9.4,9.6c-0.5,2.9-1.3,4.3-2.7,5.3l0,0c-0.6,0.4-0.7,1.1-0.2,1.5c1,0.8,1.3,2.2,0.5,6.7
				l-0.2,1.1c-0.1,0.5-0.6,1-1.2,1h-5.7c-0.5,0-0.9-0.4-0.8-1l0.2-1.1c0.5-2.9,0.7-3.9-2.7-3.9H79.7c-0.5,0-1,0.4-1.2,1l-0.7,4.1
				c-0.1,0.5-0.6,1-1.2,1H71c-0.5,0-0.9-0.4-0.8-1l4.1-23.2c0.1-0.5,0.6-1,1.2-1H97.5z M99.2,16.9c0.4-2.1,0.5-3.3-2.8-3.3H82
				c-0.5,0-1,0.4-1.2,1l-0.8,4.6c-0.1,0.5,0.2,1,0.8,1h14.4C98.7,20.2,98.8,19.1,99.2,16.9z"/>
			<path d="M53.1,6.7c16.8,0,17.4,0.7,15.1,13.3c-2.2,12.6-3,13.3-19.8,13.3S31,32.6,33.3,20C35.5,7.4,36.3,6.7,53.1,6.7z M60.6,20
				c0.8-4.6-2.1-7-8.6-7c-9.8,0-9.8,0-11.1,7l0,0c-0.8,4.7,2,7,8.6,7S59.8,24.6,60.6,20z"/>
			<path d="M29,26.9c0.5,0,0.9,0.5,0.8,1l-0.6,3.6c-0.1,0.5-0.6,1-1.1,1H0.8c-0.5,0-0.9-0.4-0.8-1L4.1,8.3c0.1-0.5,0.6-1,1.1-1H11
				c0.5,0,0.9,0.4,0.8,1L8.7,26c-0.1,0.5,0.2,1,0.8,1h0H29z"/>
		</g>
		<g>
		</g>
	</g>
</g>
</svg>
