<?xml version="1.0" encoding="UTF-8"?>
<svg id="Calque_2" data-name="Calque 2" xmlns="http://www.w3.org/2000/svg" viewBox="0 0 157.22 55.5">
  <defs>
    <style>
      .cls-1 {
        fill: #fff;
        stroke-width: 0px;
      }
    </style>
  </defs>
  <g id="Calque_1-2" data-name="Calque 1">
    <g>
      <path class="cls-1" d="m9.49,26.94h19.47c.54,0,.9.47.79,1.01l-.65,3.64c-.07.54-.61.97-1.15.97H.81c-.54,0-.9-.43-.79-.97L4.09,8.33c.11-.54.61-.97,1.15-.97h5.76c.54,0,.9.43.79.97l-3.1,17.64c-.11.54.25.97.79.97Z"/>
      <path class="cls-1" d="m48.44,33.24c-16.81,0-17.39-.68-15.15-13.28,2.2-12.6,3.06-13.28,19.83-13.28s17.35.68,15.15,13.28c-2.23,12.6-3.02,13.28-19.83,13.28Zm-7.49-13.28q-1.22,6.98,8.6,6.98t11.01-6.95-8.57-7.02c-9.83,0-9.79,0-11.05,6.98Z"/>
      <path class="cls-1" d="m104.16,22.19c-.58.4-.68,1.15-.25,1.55,1.04.83,1.3,2.2.5,6.73l-.18,1.12c-.11.54-.61.97-1.15.97h-5.72c-.54,0-.9-.43-.79-.97l.22-1.12c.5-2.95.68-3.92-2.7-3.92h-14.36c-.54,0-1.04.43-1.15.97l-.72,4.07c-.07.54-.61.97-1.15.97h-5.72c-.54,0-.9-.43-.79-.97l4.07-23.25c.11-.54.61-.97,1.15-.97h22.07c9.86,0,10.87.86,9.36,9.57-.5,2.88-1.3,4.28-2.66,5.26Zm-5-5.26c.36-2.12.54-3.28-2.81-3.28h-14.36c-.54,0-1.04.43-1.15.97l-.79,4.64c-.11.54.25.97.79.97h14.36c3.46,0,3.56-1.15,3.96-3.31Z"/>
      <path class="cls-1" d="m155.53,24.85c-1.33,7.7-4.61,8.39-18.9,8.39s-16.95-.58-16.02-7.45c.07-.58.61-1.04,1.15-1.04h5.94c.43,0,.76.29.83.68.18,1.58,1.84,1.51,9.25,1.51,8.39,0,9.65,0,10.04-2.09.36-2.09-.86-2.09-9.32-2.09-14.25,0-17.06,0-15.73-7.7,1.37-7.7,4.61-8.39,18.61-8.39s16.59.76,15.69,7.45c-.07.58-.58,1.04-1.15,1.04h-5.9c-.43,0-.79-.29-.83-.72-.11-1.48-1.58-1.48-8.96-1.48-8.42,0-9.36,0-9.72,2.09-.36,2.09.61,2.09,9,2.09,14.43,0,17.39,0,16.02,7.7Z"/>
    </g>
    <circle class="cls-1" cx="113.26" cy="2.68" r="2.68"/>
    <path class="cls-1" d="m109.92,7.36h6.63c1.37,2.57,2.74,5.14,4.1,7.71l-6.99,18.86c6.02,7.19,12.04,14.37,18.06,21.56-8.04-6.97-16.08-13.94-24.13-20.9,2.17-6.56,4.34-13.12,6.52-19.69l-4.19-7.55Z"/>
  </g>
</svg>